/* XPM */
static char *_d0b3d098b4c4188b9915495ae13e32fwYuotkT6QCvbobDz[] = {
/* columns rows colors chars-per-pixel */
"32 32 224 2 ",
"   c None",
".  c #00763C",
"X  c #1E0B54",
"o  c #1F1C59",
"O  c #260759",
"+  c #27245E",
"@  c #371A66",
"#  c #320E62",
"$  c #3A286A",
"%  c #38336B",
"&  c #292660",
"*  c #4B116F",
"=  c #63177D",
"-  c #4A2C75",
";  c #423E72",
":  c #522B77",
">  c #147B55",
",  c #176E73",
"<  c #217E66",
"1  c #24777A",
"2  c #454376",
"3  c #ED3B15",
"4  c #ED3E01",
"5  c #EE4A02",
"6  c #EE471A",
"7  c #EE5818",
"8  c #EF6E0C",
"9  c #EF5525",
"0  c #EF5D33",
"q  c #EB472D",
"w  c #EF6738",
"e  c #F17B3B",
"r  c #F17736",
"t  c #F07025",
"y  c #F05949",
"u  c #F16B58",
"i  c #F06B55",
"p  c #F17263",
"a  c #03891F",
"s  c #29A01D",
"d  c #15932E",
"f  c #289E3C",
"g  c #39A832",
"h  c #219C12",
"j  c #51AB10",
"k  c #5CB025",
"l  c #43AC3D",
"z  c #5BB136",
"x  c #77B92B",
"c  c #6BB73B",
"v  c #13804B",
"b  c #188749",
"n  c #1C805A",
"m  c #279746",
"M  c #2C9257",
"N  c #35975C",
"B  c #3BA64F",
"V  c #33A348",
"C  c #3EA852",
"Z  c #328D69",
"A  c #4DB145",
"S  c #4FB14A",
"D  c #4EB14D",
"F  c #6CB846",
"G  c #75BD4B",
"H  c #439870",
"J  c #53AC6B",
"K  c #6ABD63",
"L  c #85BF32",
"P  c #F08917",
"I  c #F2901D",
"U  c #EFA914",
"Y  c #F28D3A",
"T  c #F28A35",
"R  c #F2902D",
"E  c #F2A33F",
"W  c #F2A635",
"Q  c #F2B73A",
"!  c #F1AC25",
"~  c #8AC13A",
"^  c #9BC739",
"/  c #A6C828",
"(  c #AFCD37",
")  c #F1CA1E",
"_  c #D2DA28",
"`  c #D3DB32",
"'  c #EFCD22",
"]  c #F1CA2A",
"[  c #F1D03A",
"{  c #F1D330",
"}  c #F3E32D",
"|  c #F1E334",
" . c #C9D61F",
".. c #F28457",
"X. c #F29140",
"o. c #F2A442",
"O. c #F2BA44",
"+. c #F39678",
"@. c #F28576",
"#. c #F5B47C",
"$. c #F4A768",
"%. c #92C64E",
"&. c #B4D14B",
"*. c #B3D14B",
"=. c #8DC868",
"-. c #ABD26C",
";. c #C3D753",
":. c #F4D143",
">. c #F5D249",
",. c #F4CC57",
"<. c #D9E04C",
"1. c #DCE25C",
"2. c #F3E748",
"3. c #F4E955",
"4. c #F8EA79",
"5. c #EBE971",
"6. c #DEDB70",
"7. c #133B9B",
"8. c #2C3194",
"9. c #5B1B85",
"0. c #651980",
"q. c #58348F",
"w. c #6D3889",
"e. c #713B8C",
"r. c #6F3191",
"t. c #075689",
"y. c #1E449F",
"u. c #03499A",
"i. c #327C89",
"p. c #37799B",
"a. c #2C7191",
"s. c #1956A8",
"d. c #114FA4",
"f. c #3E5DAB",
"g. c #3555A8",
"h. c #2A51A6",
"j. c #3470AC",
"k. c #2A5399",
"l. c #48479E",
"z. c #48489E",
"x. c #58518D",
"c. c #6F489E",
"v. c #6E479E",
"b. c #70499E",
"n. c #7A499A",
"m. c #68558B",
"M. c #7A749B",
"N. c #4C4BA0",
"B. c #445EAF",
"V. c #5754A4",
"C. c #5C4FA1",
"Z. c #744FA2",
"A. c #497AB9",
"S. c #4E68B2",
"D. c #687EBC",
"F. c #833E97",
"G. c #874399",
"H. c #84579C",
"J. c #8E59A4",
"K. c #9073AB",
"L. c #3A838A",
"P. c #67A59A",
"I. c #62AB84",
"U. c #7BA9B4",
"Y. c #74A9A8",
"T. c #5B96A3",
"R. c #6A89C6",
"E. c #8C81A8",
"W. c #9487AD",
"Q. c #9D91B4",
"!. c #AC99BE",
"~. c #82B7A6",
"^. c #87B4B5",
"/. c #F49A84",
"(. c #F4A589",
"). c #F5B292",
"_. c #F7BCA2",
"`. c #8DC994",
"'. c #AAD489",
"]. c #BADA88",
"[. c #A8D595",
"{. c #9BC6B9",
"}. c #91C5A8",
"|. c #A3CABF",
" X c #B5DBAD",
".X c #C6DF91",
"XX c #F7CF95",
"oX c #D2E28D",
"OX c #F8EB83",
"+X c #E4EB95",
"@X c #EBE893",
"#X c #F7D3AA",
"$X c #C9E3A6",
"%X c #F8E8A4",
"&X c #FAF6A6",
"*X c #8F96C6",
"=X c #B798C3",
"-X c #88AAC6",
";X c #92ACCE",
":X c #AFB0D3",
">X c #CBB7D8",
",X c #D1B7D8",
"<X c #A8CDC2",
"1X c #BFE0C5",
"2X c #C5DDDA",
"3X c #C0DDCE",
"4X c #D4EAC7",
"5X c #D6ECD7",
"6X c #C6E3CB",
"7X c #E7F2CB",
"8X c #FCF9CE",
"9X c #E5F2DA",
"0X c #F5F7D5",
"qX c #CBDEE2",
"wX c #C4D3EC",
"eX c #D9E9E5",
"rX c #CFE1E0",
"tX c #E9F5E9",
"yX c #F4F9ED",
"uX c #EEF4F8",
"iX c #F4F9FD",
"pX c #FFFEFF",
"aX c #F8FBF6",
"sX c #E1EBED",
/* pixels */
"                          I.N B A F                             ",
"                      L.1 > m f g z x ^ ;.                      ",
"                  s.t.L.P.Y.}.`.[.[.'.-.( _ 2.                  ",
"              V.7.j.-X;X^.Y.I.J K =.].oX+X+X2.) ,.              ",
"            q.8.*X:XR.k., < M m B c ~ / <.4.%X4.U E             ",
"          9.V.:X*Xh.d.j.a.> b f g k x ( <.} [ #X%X! I           ",
"        = e.wXJ.8.B.j.t.i.}.6X5X5X4X$X*._ 2.:.U #.#XI r         ",
"      w.0.wXJ.9.V.B.u.T.pXpXeX5X5XtXpXpX5.} >.O.P ).XX8 ..      ",
"      * =XK.= Z.V.y.A.pX2X^.3X5X9X4X].9XpX3.] O.W 8 ).#.5       ",
"    # n.=X* G.n.V.7.wXaX^.uXpX6X6XpXtX6.yX8X' O.o.R 0 #Xt w     ",
"    O !.m.: G.c.N.h.uX2XsXiXN a s c yX0X7XpX[ Q E X.7 +.).4     ",
"  ; : Q.@ w.F.b.l.f.iXqXpX<X. B A j $XpXpXpX:.Q o.Y r w ).7 i   ",
"  O K.M.o e.F.b.l.B.iXqXpX{.v B A c -.oX+X4.:.Q E Y e 6 /...q   ",
"2 X W.m.@ w.F.b.l.f.iXqXpX|.v B A G ~ / _ } :.O.E Y e 6 @.+.3   ",
"& @ E.% - w.G.b.l.f.iXqXpX|.> B A G %.*.<.3.>.Q E Y e 9 p /.3 y ",
"o $ E.% : w.F.c.l.f.iXqXpX|.v B A G ~ / _ } :.O.E Y e 9 u (.q q ",
"o - E.% - w.G.c.N.f.iXqXpX|.v B A c -.oX@XOX:.Q o.Y e 9 u /.6 q ",
"o & W.2 - w.F.c.l.f.iXqXpX{.v V A k $XpXpXpX[ Q E Y e 9 p /.3 y ",
"% X W.2 @ w.F.c.l.g.iXqXpX<X> B S j $XpX0XaX:.Q E Y e 6 @.+.3   ",
"  X K.M.# e.F.v.N.h.uXqXsXaXN a h F aX8X7XaX[ Q E Y T 6 /...q   ",
"  % w.W.@ w.F.c.V.7.wXuX^.pXpX|. XpXaXoXyX8X' O.E Y r 0 ).9 y   ",
"    O !.m.= G.c.V.y.A.pX2X^.1XtXtX4X].7XpX5.] O.E Y 7 +.(.5     ",
"    @ H.!.* G.v.V.B.u.U.pXpXeX4X5X9XpXpX+X} :.O.o.T t _.r w     ",
"    x.* =XK.0.Z.V.g.s.t.i.{.6XtXtX4X$X&. .} [ O.o.8 (.#.5       ",
"      : r.,XG.r.N.B.A.p.i.< H V l G %.( 1.4.>.Q I $.XX8 i       ",
"        = e.>XH.8.D.;XR.^.^.}.J A  X].oX5.&X,.U $.#XR t         ",
"          9.C.:X*X7.s.L.i.Z Z V A G ~ &.<.} ] XX%X! P           ",
"            q.g.*X;XA.s., < M V l c ~ / ` 4.%XOX! W             ",
"              N.y.A.U.;XY.P.J C S =.-.oX+X+X2.) :.              ",
"                S.s.t.L.P.Y.~.`.`.'.].-.*._ 2.                  ",
"                      a.n n M V g c x ^ ;.                      ",
"                          I.M V A c =.                          "
};
