/* XPM */
static char *_6e5bd48cf814c70bd4552e067b96ef39aX9Nd3JXb3sFnYN[] = {
/* columns rows colors chars-per-pixel */
"64 64 250 2 ",
"   c None",
".  c #14084F",
"X  c #260A5A",
"o  c #26175B",
"O  c #361966",
"+  c #330E62",
"@  c #2C2662",
"#  c #39296A",
"$  c #37356B",
"%  c #29245F",
"&  c #4F1273",
"*  c #4B3275",
"=  c #463874",
"-  c #57337C",
";  c #58387E",
":  c #4C2674",
">  c #0D794C",
",  c #085B7C",
"<  c #15706D",
"1  c #277B76",
"2  c #4F497C",
"3  c #067F36",
"4  c #EC3812",
"5  c #EE3F23",
"6  c #EE580A",
"7  c #EE4A16",
"8  c #EE561A",
"9  c #ED4B0F",
"0  c #EF7012",
"q  c #EE4726",
"w  c #EE542A",
"e  c #EF5935",
"r  c #EE4D31",
"t  c #F06A27",
"y  c #EF6537",
"u  c #F06C39",
"i  c #F06637",
"p  c #F07539",
"a  c #F17E3A",
"s  c #F07635",
"d  c #F07128",
"f  c #ED5947",
"g  c #EF6845",
"h  c #EF6D50",
"j  c #F27A6D",
"k  c #148F31",
"l  c #249C33",
"z  c #33A42F",
"x  c #4DA814",
"c  c #50AE35",
"v  c #77BB3A",
"b  c #6BB631",
"n  c #66B10F",
"m  c #26895B",
"M  c #3A9B5D",
"N  c #2C964E",
"B  c #3DA84A",
"V  c #38A646",
"C  c #3CA256",
"Z  c #3D9C60",
"A  c #399467",
"S  c #378A77",
"D  c #308A6C",
"F  c #198749",
"G  c #49AE49",
"H  c #45AC47",
"J  c #5AB44A",
"K  c #57B249",
"L  c #42A45B",
"P  c #6BB94A",
"I  c #66B748",
"U  c #7CBE49",
"Y  c #76BC46",
"T  c #6CBA55",
"R  c #45957B",
"E  c #419C64",
"W  c #53A86F",
"Q  c #68BA6A",
"!  c #7EC473",
"~  c #7EC153",
"^  c #F08E12",
"/  c #EFB018",
"(  c #F19A2A",
")  c #F1893A",
"_  c #F18638",
"`  c #F3923B",
"'  c #F19E3E",
"]  c #F29733",
"[  c #F28629",
"{  c #F2A839",
"}  c #F1B230",
"|  c #91C230",
" . c #B0CD35",
".. c #C8D63B",
"X. c #D3D82A",
"o. c #F1D827",
"O. c #F2C73B",
"+. c #F2D63B",
"@. c #EDD02A",
"#. c #EEE53C",
"$. c #EAE129",
"%. c #F1DA1E",
"&. c #F28B43",
"*. c #F29841",
"=. c #F19256",
"-. c #F2A841",
";. c #F2A244",
":. c #F3B342",
">. c #F2BE43",
",. c #F2B54A",
"<. c #F3B453",
"1. c #F3946F",
"2. c #F5B07B",
"3. c #8CC44A",
"4. c #8AC347",
"5. c #9AC94A",
"6. c #8BC554",
"7. c #ABCE47",
"8. c #BAD348",
"9. c #A9CF56",
"0. c #96CB70",
"q. c #B0D36D",
"w. c #CBD949",
"e. c #DADE48",
"r. c #CCDA57",
"t. c #F2C945",
"y. c #F2C84A",
"u. c #F2D445",
"i. c #F2D44B",
"p. c #F2D15B",
"a. c #EEE74B",
"s. c #ECE649",
"d. c #F5E24A",
"f. c #F2E445",
"g. c #EBE656",
"h. c #F3E555",
"j. c #C9DB68",
"k. c #F4D66B",
"l. c #D8E275",
"z. c #F1E86E",
"x. c #DDE04E",
"c. c #87BF26",
"v. c #123898",
"b. c #2E3293",
"n. c #3F1983",
"m. c #53368C",
"M. c #682987",
"N. c #633685",
"B. c #663B87",
"V. c #70398C",
"C. c #77338E",
"Z. c #7E3D93",
"A. c #783A95",
"S. c #6F3592",
"D. c #5B1C85",
"F. c #0C4F92",
"G. c #1D678A",
"H. c #2A7586",
"J. c #347C8C",
"K. c #286A9A",
"L. c #357699",
"P. c #296D96",
"I. c #134CA2",
"U. c #394FA2",
"Y. c #3349A0",
"T. c #2956A8",
"R. c #3A5EAB",
"E. c #3856A7",
"W. c #2B67A9",
"Q. c #3569AC",
"!. c #3264B1",
"~. c #3772A4",
"^. c #2B429D",
"/. c #504897",
"(. c #664B9E",
"). c #6A419A",
"_. c #71459C",
"`. c #7E4199",
"'. c #794797",
"]. c #714D90",
"[. c #4659A8",
"{. c #4859A8",
"}. c #5154A5",
"|. c #5B50A2",
" X c #5459A8",
".X c #4F4DA1",
"XX c #6C53A3",
"oX c #4A6FB3",
"OX c #6E66A2",
"+X c #84469A",
"@X c #9172A9",
"#X c #9A65A8",
"$X c #368285",
"%X c #4C918D",
"&X c #6AAE8D",
"*X c #558BAB",
"=X c #6C96B7",
"-X c #7AA6B8",
";X c #73A9A6",
":X c #5FA28F",
">X c #6E8FC3",
",X c #78C181",
"<X c #988BB0",
"1X c #83ABBF",
"2X c #87B8AC",
"3X c #A99ABC",
"4X c #F6B8A8",
"5X c #F5A890",
"6X c #91CB97",
"7X c #AFD791",
"8X c #98CAA9",
"9X c #9BCBAE",
"0X c #A8D6A7",
"qX c #B4DBB1",
"wX c #D5E490",
"eX c #F0EB8F",
"rX c #F8CEB4",
"tX c #D3E7B4",
"yX c #F3EEB0",
"uX c #E3D498",
"iX c #93B1CD",
"pX c #B1B8CD",
"aX c #AF97C7",
"sX c #C8AED0",
"dX c #A6C8C7",
"fX c #BBDAC9",
"gX c #B4CDD7",
"hX c #BACDE3",
"jX c #BFE1C0",
"kX c #CBD1D8",
"lX c #F9DCD6",
"zX c #F8D3C5",
"xX c #D9EBC6",
"cX c #CCE2D8",
"vX c #D0E8D2",
"bX c #F9F7D8",
"nX c #F1EFCF",
"mX c #D7DDE9",
"MX c #CCD1E4",
"NX c #E6DCEA",
"BX c #D9E5EB",
"VX c #FAF9E7",
"CX c #E9EEF6",
"ZX c #E7E9F3",
"AX c #EBF1F4",
"SX c #E7F0F0",
"DX c #F4F8F9",
"FX c #FFFFFF",
"GX c #F6F7F5",
"HX c #EFEDEA",
/* pixels */
"                                                                                                                                ",
"                                                      W A M C B G J I U 0.                                                      ",
"                                                %X$XS A A C B B G K J P U 4.9.9.                                                ",
"                                          ~.L.H.1 S S A M N V l z c J Y U 4.5.7.7.w.x.                                          ",
"                                    oX!.K.P.L.$X1 < > m A W W Q Q T T P b b |  . .w.e.e.h.                                      ",
"                                  R.T.W.~.G.F.< %X2XfXcXvXSXSXvXvXVXHXvXxXtXq.7. . ...s.#.#.i.                                  ",
"                              }.T.R.!.I.F.$XiXcXBXhXdX;X:XW L V H T 6.0.wXxXnXGXtXwXw.$.d.d.+.O.p.                              ",
"                            .X[.R.T.I.*XhXCXgX=XJ.< < F m N N V z G c b b | | r.yXnXVXeX#.o.i.y.O.{                             ",
"                        OX/.|. Xv.E.hXCXpX!.F.G.J.$XS S A Z C B G J T U 3.5.7. .X.X.z.bXVXeXo.@.y.} {                           ",
"                      '.S. X.Xv.>XDXMXE.I.T.L.L.J.$XS A A Z C B G J P U 3.5.7.w.w.e.$.o.p.bXbXi./ y.{ { ;.                      ",
"                    A.).(.m.b.MXDXOXv.T.!.!.W.L.J.$X$XS A E C B c I P U 3.5.7.8.w.e.a.d.o.} uXFXeX/ { ,.] ;.                    ",
"                  C.A._.m.).ZXMXm.b.{.[.!.W.~.P.$X$XS m F F k k l z c b v 5.8.8.w.s.a.d.i.O./ <.GXyX^ { ;.[ )                   ",
"                Z.S.+XD.|.FXsXn./. X[.R.!.W.L.L.H.< 1 A &X6X9X0X0X0X7X0.6.| |  .r.x.a.d.u.t.>.( ( HXzX^ ( ) [                   ",
"              '.M.+XS.S.DXaXn.).|.}.[.R.!.W.~., H.-XcXFXFXFXFXFXFXFXFXFXFXnXwX7.X.x.a.f.u.t.>.,.( ^ VXnX^ ( _ d                 ",
"              & A.C.C.GXsX& A.(.|.}.{.R.!.W.F.*XSXFXFXFXFXFXFXFXFXFXFXGXFXFXFXVXj.X.#.u.u.t.y.:.-.( 0 FXrX^ ` s d               ",
"            : M.C.D.NXsX& `._.(.|.}.{.!.!.F.=XFXFXFXFXFXcXqX8X8X0X0XtXHXFXFXFXFXFXeX$.s.u.t.>.:.{ -.[ d FX2.0 &.t =.            ",
"          ].& ].& aXHX& Z.+X_.(.|.}.[.[.I.~.FXFXFXFX2X:X;X8X8X0X0X0X0X0.q.xXFXFXFXFXg.o.i.t.>.:.-.{ *.0 &.FX) t a 8             ",
"          : N.: `.FXV.& +X+X_.(.|.}.{.R.I.mXFXFXFX:X:XcXFXFXFXFXFXFXFXDXtX9.q.FXFXFXbXo.u.t.>.:.-.*.) &.6 rXbX0 a t p           ",
"        * : N.& NX3X+ A.Z.`._.(.|.}.{.I.oXFXFXFX;X;XFXFXFXFXFXFXFXFXFXFXFXFX7.wXFXFXFXh.@.y.>.:.{ ;.` ) s 8 GX2.6 p 7           ",
"        # - & @XZX& - V.Z.Z._.(.|.}.}.v.iXFXFXMX*XFXFXFXFXcX6X6X6X7XxXFXFXFXGX8.VXFXFXyX@.t.>.:.-.*.` ) a 9 1.GXd s w g         ",
"      /.+ N.O NX<XX B.V.Z.Z._.(.|.}.{.I.hXFXFX1XdXDXFXDX8XF k l l z x 0.FXFXFXj.wXFXFXnX@.t.} :.-.*.` ) a p 9 lX5X6 u 8         ",
"      # : O #XHXO : N.V.Z.+X_.(.|.}..XT.mXFXFX-XBXFXFXcX> N C B c K P x 7XFXFXyXyXFXFXbX+.t.y.:.-.{ ` ) _ p 7 1.VXt u q h       ",
"      o * + sXpX. N.N.V.Z.`._.(.|.}.U.T.ZXFXDX-XDXFXFX:X> M C B G J P v 3.FXFXFXFXFXFXbX+.O.>.:.-.' ` ) a p i 7 lX1.8 e e       ",
"    2 O : * NX2 O N.N.V.Z.`._.(..X}.U.R.CXFXAX-XDXFXFXR m M C B G J P v 3.FXFXFXFXFXFXFX+.O.>.:.-.*.` ) a p u 4 4XzX7 y q       ",
"    # : + @XkX. * ; ; Z.Z.`._.(.|.}.U.R.CXFXAXiXAXFXDXR m E C B G J P v 3.xXnXnXnXbXbXyX+.+.>.:.-.' ` ) a s i q h bXi w q f     ",
"    @ $ X sX3X. * ; ; V.Z.`._.(.|.}.U.R.CXFXAX1XDXFXDXR m Z C B G J P U 4.|  . ...X.$.#.u.t.>.:.-.' ` ) a s u e 5 lX=.q w e     ",
"    o = O kX].X * - B.C.Z.Z._.(.|.}.U.R.CXFXAX-XDXFXFXR m E C B G J I U 4.5.7.8.w.e.f.f.i.t.>.:.-.' ` ) a s u y 4 zX4X4 r e     ",
"  2 o O 2 HX$ % * - N.V.Z.`._.(.|.}.U.R.CXFXAX-XDXFXDXR m Z C B G J P U 4.5.7.8.w.x.a.d.u.t.>.:.-.' ` _ a p u i 4 5XzX4 e q     ",
"  2 o O ].mX% $ * - N.V.Z.+X_.(.|.}.U.R.SXFXAXiXDXFXDX%Xm M C B G J P U 3.5.9.8.w.e.a.d.i.t.>.:.{ { ) ) a p u e 4 j zX8 e 5     ",
"  @ @ o @XpX. # * - N.V.Z.Z._.(.|.}.U.R.CXFXAX1XDXFXDXR m M C B G J P U 4.5.7.8.w.e.a.f.u.t.>.:.-.*.` ) a p i y 5 h lXy r q h   ",
"  $ @ o @XpX. # * - ; V.Z.Z._.(.|.}.U.R.CXFXAX1XDXFXDXR m C C B G J P U 3.5.7.8.w.s.d.d.u.t.>.:.;.{ ` ) a p u y q f lXg r 5 f   ",
"  @ # X <XpX. # * - B.C.Z.+X_.(.|.}.U.R.CXFXAX1XDXFXFXR m E C B G J P U 3.5.7.8.w.e.f.u.i.t.t.:.-.*.` ) a p i e r f lXg r r f   ",
"  @ = X <XpX. # * - N.V.Z.`._.(.|.}.U.R.CXFXAX1XDXFXFXR m Z C B G J P U 4.|  .7...X.f.#.i.u.>.{ -.*.` ) a p i y q f lXh w r r   ",
"  @ @ X @XpX. # * m.N.V.Z.Z._.(.|.}.U.R.CXFXAX1XDXFXDXR m Z C B c J P v 4.xXbXnXbXnXbXyX+.t.>.:.-.{ ` ) a p i y q f lXi w q f   ",
"  $ @ o @XdX. $ * - N.V.Z.`._.(.|.}.U.R.CXFXAX1XDXFXFXS m E C B H J P v 3.FXDXFXFXFXFXFX+.O.>.:.-.' ` ) a p u e q h lXe r q h   ",
"  $ % O ].kXo # * - B.S.Z.`._.(.|.}.U.R.CXFXSX-XDXFXDXR m Z C B H J P Y 4.GXFXFXFXFXFXbXu.O.>.:.-.' ` ) a p u y 4 j zXq e q     ",
"  2 o # 2 NX$ % * - N.V.Z.+X_.(.|.}.U.!.CXFXCXiXDXFXFXR m Z C V G J P b 3.FXFXVXwXFXFXVXu.O.t.:.{ *.` ) a p s e 4 5XrX7 e 5     ",
"    o # : kX].o * - N.V.Z.`._.(.|.}.U.E.ZXFXAX-XDXFXFX&X> Z C B G J T b q.FXFXbXl.FXFXVX+.O.>.:.-.{ ` ) a p i i 4 4XrX9 e r     ",
"    % * + sX<X. * - N.V.Z.Z._.(.|.}.E.T.mXFXDX-XCXFXFXcX> N C B G J b x xXFXFXxXeXFXFXbXO.O.>.{ -.' ) ) a p u e 4 zX1.7 r f     ",
"    # # + @XkX. * - N.V.Z.+X_.(.|.}.E.^.hXFXFX1XgXFXFXDX2Xk k l z z x 7XFXFXFXwXwXFXFXnX@.t.t.:.-.' ` ) a p i w f lXs e q f     ",
"    = O : N.mX= # - - V.Z.+X_.(.|.}.[.I.iXFXFXgX;XFXFXFXFXfX&XQ Q 0.tXDXFXFXFXr.nXFXFXyX@.t.>.:.-.{ ` ) a p s 4 5XzX9 i q       ",
"      o = + kX<XX ; N.C.Z.Z._.(.|.}.[.I.oXFXFXFX*X2XFXFXFXFXFXFXFXFXFXFXFXDXq.wXFXFXFXz.@.t.t.-.-.*.` ) a s i 9 lX5X9 y r       ",
"      # * + @XNX+ - N.V.Z.Z._.(.|.}.{.R.I.mXFXFXSX%X;XSXFXFXFXFXFXFXFXFXnXq.q.FXFXFXVXo.u.t.>.:.-.*.` ) a p 8 h lXt u w g       ",
"      = : - & HXOX+ B.V.Z.+X_.(.|.}.[.[.I.*XFXFXFXFX2X:X2X8XqXqXqXqX7X7X0.wXFXFXFXFXz.o.u.t.>.:.-.' ` ) a p 9 zX4X9 g 7         ",
"        + ; + aXNX+ M.V.Z.`._.(.|.}.[.R.!.F.-XDXFXFXFXAXfX8X9X6X6X0X0XtXFXFXFXFXFXyX$.f.u.t.>.:.-.' ` ) a 8 h VXs d i i         ",
"        * : N.& NX@X& V.Z.`._.(.|.}.[.R.!.W.F.-XFXDXFXFXFXFXFXFXFXFXFXFXFXFXFXFXwXX.s.d.u.t.>.:.-.' ` _ _ 9 lX4X6 h 8 h         ",
"          O N.& #XGX: D.Z.`._.(.|.}.[.R.!.Q.W., $XdXDXFXFXFXFXFXFXDXFXFXFXFXtXr.X.e.s.d.u.t.>.:.{ ' ` &.6 2.GX0 [ u i           ",
"          - : Z.& sXkX& Z.+X_.(.|.}.[.Q.!.W.K.L.G.< S :X9XqXjXvXvXxXtXqXq.5.|  ...e.s.d.u.t.>.:.-.' ' d s FX=.0 ) 8             ",
"            : C.C.D.AXaX& +X`._.|.}.{.E.I.!.G.L.G.1 1 > > k k N z z x b n |  .7...e.a.o.+.y.>.:.-.' _ 0 VX4X0 &.t s             ",
"            ].: Z.M.A.FX#XD._.).|.}.U.oXiX!.*XG.;X;X1 2XW W W V z ! 0.Y 7X9.q.r.j.z.h.eXp.O.>.:.-.' 0 rXyX0 ] [ t               ",
"              V.M.+XM.+XFX#XD.XX|.}.^.iXhX>XiXF.gXdX;XcXA fXvXl z 6XxX6.FXq.xXj.wXyXh.FXeX@.>.:.{ ^ rXbX^ _ ` t                 ",
"                - Z.+XD.OXFX@Xn.|.|.^.>XiX!.iX*X-X2X%XdXE &X8XV z ~ qX0.7X| wXj.wXz.h.yXp.} >.{ ^ rXbX( ( *.[ &.                ",
"                  C.`._.D.XXFXaXn.Y.{.T.W.W.K.L.H.S S D D N N B G J J Y | 5.7.8...e.a.#.u.y.} { bXnX/ ] ;.] `                   ",
"                    S.).XXb.}.BXMX.X^.E.!.W.K.L.J.H.S A A Z C B G J P U 3.5.7.8.e.e.a.d.+./ p.VXyX/ { -.] _                     ",
"                      _.(.XXb.b.hXCX<XI.I.W.K.L.J.$XS S A Z C B G J P U 3.5.7.8.w.e.#.%.u.yXVXk./ } <.{ ]                       ",
"                        m.(. X{.v.oXhXMX>XI.F.G.$X$XS S A Z C B G J P U 3.5.7.8...$.d.yXVXyX+.@.t.{ } <.                        ",
"                          XX.X[.{.I.I.>XhXMXiX*X, < < m m M C B G K I v v v |  .l.yXVXyXg.$.+.y.O.} <.                          ",
"                             X[.U.oX!.I.G.*XdXBXgXdX;X%XA N N l z c J 6.9.wXyXnXnXwXx.X.#.h.u.O.t.                              ",
"                                [.T.T.W.W.G., $X;XqXfXcXBXfXfXjXjXvXxXxXxXtXwXq. . ...s.f.#.+.p.                                ",
"                                    !.W.W.L.L.H.< < m A W &X,X,X! ! ! P Y v | | 8.w.w.e.f.h.                                    ",
"                                        ~.L.P.H.$X$XS A m N l l z c c P U 6.5.7. .w.w.g.                                        ",
"                                              %X$XD D D Z Z C B B J P P v | 5.7.j.                                              ",
"                                                    %XE Z C C B H J I Y 0.                                                      ",
"                                                                                                                                "
};
