/* XPM */
static char *_773ce6cfea44a8aaf847085db8ee64fnSN4EfTlVmXQ2xUE[] = {
/* columns rows colors chars-per-pixel */
"16 16 183 2 ",
"   c None",
".  c #3C316C",
"X  c #3C326D",
"o  c #582877",
"O  c #592977",
"+  c #5A2B78",
"@  c #433771",
"#  c #433772",
"$  c #0C6A6B",
"%  c #EE5238",
"&  c #ED573D",
"*  c #F0602F",
"=  c #EF6435",
"-  c #EF6F35",
";  c #F06435",
":  c #EE664C",
">  c #ED694F",
",  c #F17641",
"<  c #F16C52",
"1  c #F17753",
"2  c #F17056",
"3  c #F17D51",
"4  c #F17B55",
"5  c #F17F54",
"6  c #F27560",
"7  c #F27761",
"8  c #0A863F",
"9  c #4AAE2C",
"0  c #4CAE2E",
"q  c #4BB024",
"w  c #4EB22F",
"e  c #4EB235",
"r  c #4FB238",
"t  c #0C8640",
"y  c #1B8F49",
"u  c #209344",
"i  c #27964A",
"p  c #249849",
"a  c #279A4B",
"s  c #39A355",
"d  c #3AA357",
"f  c #5AB749",
"g  c #59B64A",
"h  c #59B84A",
"j  c #40907A",
"k  c #46947E",
"l  c #54AF6B",
"z  c #58B074",
"x  c #5DB377",
"c  c #6DC061",
"v  c #76C365",
"b  c #79C569",
"n  c #F0861B",
"m  c #F18A2B",
"M  c #F1882F",
"N  c #F1962E",
"B  c #F18734",
"V  c #F29733",
"C  c #F2983B",
"Z  c #F7BB28",
"A  c #94C321",
"S  c #9DC729",
"D  c #E4E213",
"F  c #F1C528",
"G  c #F3C92F",
"H  c #F7C82F",
"J  c #E6E438",
"K  c #F39543",
"L  c #F29941",
"P  c #F39948",
"I  c #F3BA49",
"U  c #F3BB4B",
"Y  c #F49462",
"T  c #F49B6B",
"R  c #F4B169",
"E  c #F5B87A",
"W  c #96C853",
"Q  c #96C854",
"!  c #B1D24F",
"~  c #AED255",
"^  c #AAD258",
"/  c #ACD165",
"(  c #B0D36F",
")  c #FBC247",
"_  c #F5CB45",
"`  c #FACC44",
"'  c #FECD44",
"]  c #F4CD4E",
"[  c #F4CC4F",
"{  c #E6E743",
"}  c #F7E54B",
"|  c #F9E54E",
" . c #EAEA55",
".. c #F1E854",
"X. c #FBDE76",
"o. c #DAE665",
"O. c #DCE86F",
"+. c #F1EE6B",
"@. c #F5EC6B",
"#. c #FEE27E",
"$. c #2D389C",
"%. c #67298D",
"&. c #6E2E8C",
"*. c #73318E",
"=. c #733696",
"-. c #773694",
";. c #743796",
":. c #743897",
">. c #763998",
",. c #28409D",
"<. c #145EA0",
"1. c #2C44A0",
"2. c #3247A5",
"3. c #2165A2",
"4. c #396FAF",
"5. c #3876AE",
"6. c #3566B4",
"7. c #3668B4",
"8. c #5C5585",
"9. c #5F5487",
"0. c #5F5587",
"q. c #624386",
"w. c #654187",
"e. c #72468B",
"r. c #75488C",
"t. c #67528C",
"y. c #68548C",
"u. c #4F5FAD",
"i. c #5252AB",
"p. c #5160AD",
"a. c #5260AE",
"s. c #5361AF",
"d. c #4D7FBA",
"f. c #6C60AB",
"g. c #6C62AD",
"h. c #894B9D",
"j. c #894D9F",
"k. c #9964A4",
"l. c #9C68A7",
"z. c #976AAF",
"x. c #A77BB8",
"c. c #3E8987",
"v. c #3B8789",
"b. c #579A90",
"n. c #5F9E95",
"m. c #4B89AB",
"M. c #5790AF",
"N. c #6F80C2",
"B. c #798AC9",
"V. c #99C4BB",
"C. c #9FC8BE",
"Z. c #C9E29A",
"A. c #CBE5A6",
"S. c #CEE6AB",
"D. c #F7FAB5",
"F. c #F6F9BA",
"G. c #A2C3DD",
"H. c #A3C3DD",
"J. c #BCD8D2",
"K. c #BDD9D3",
"L. c #C5DED9",
"P. c #D4EAD0",
"I. c #D1E9D7",
"U. c #D7EBDB",
"Y. c #D5ECDB",
"T. c #DBEED8",
"R. c #DCF0DA",
"E. c #FCF9C6",
"W. c #EFF7D9",
"Q. c #D3E5E7",
"!. c #D6E5E9",
"~. c #DDF0E3",
"^. c #E3F3E0",
"/. c #FAFCEB",
"(. c #E7F3FA",
"). c #EDF5FF",
"_. c #F6FBFF",
"`. c #F6FCFF",
"'. c #F8FDF8",
"]. c #F8FDF9",
"[. c #FEFFFC",
"{. c #FFFFFE",
"}. c #FEFFFF",
/* pixels */
"            k s g Q             ",
"        6.M.n.x b ( O.}         ",
"      g.B.4.$ p e S ..#.U       ",
"    j.x.$.<.C.Y.R.S.J Z E P     ",
"  q.l.&.$.G.[.U.T.].F.F M T -   ",
"  y.r.%.s.(.Q.a 0 W.[.] n 5 4   ",
"# 8.+ :.p.`.K.8 w ^ +.` C = 2 : ",
"X 8.O ;.u.).L.y h A D ' L * 6 & ",
"X 8.+ ;.u._.K.t q Z.E._ V * 6 % ",
"# 9.O >.p.(.!.u 9 /.[.] V = < > ",
"  t.e.-.1.H.[.I.P.].D.G m 3 1   ",
"  w.k.*.2.3.V.~.^.A.{ H B Y ,   ",
"    h.z.i.4.v.z c ~  .) R K     ",
"      f.N.m.v.a r ! @.X.U       ",
"        7.m.b.z v / o.|         ",
"            j d g W             "
};
